
<svg width="64" height="64" viewBox="0 0 64 64" fill="none" xmlns="http://www.w3.org/2000/svg">
<path d="M43.247 27.0712V30.4792H32.687V27.0712H43.247Z" fill="#408C2B"/>
<path d="M24 58.6654C25.4728 58.6654 26.6667 57.4715 26.6667 55.9987C26.6667 54.5259 25.4728 53.332 24 53.332C22.5273 53.332 21.3334 54.5259 21.3334 55.9987C21.3334 57.4715 22.5273 58.6654 24 58.6654Z" stroke="#408C2B" stroke-width="8" stroke-linecap="round" stroke-linejoin="round"/>
<path d="M53.3333 58.6654C54.8061 58.6654 56 57.4715 56 55.9987C56 54.5259 54.8061 53.332 53.3333 53.332C51.8605 53.332 50.6666 54.5259 50.6666 55.9987C50.6666 57.4715 51.8605 58.6654 53.3333 58.6654Z" stroke="#408C2B" stroke-width="8" stroke-linecap="round" stroke-linejoin="round"/>
<path d="M2.66663 2.66797H13.3333L20.48 38.3746C20.7238 39.6024 21.3917 40.7052 22.3667 41.4901C23.3418 42.275 24.5618 42.692 25.8133 42.668H51.7333C52.9848 42.692 54.2048 42.275 55.1798 41.4901C56.1549 40.7052 56.8228 39.6024 57.0666 38.3746L61.3333 16.0013H16" stroke="#408C2B" stroke-width="4" stroke-linecap="round" stroke-linejoin="round"/>
</svg>
